<svg width="165" height="164" viewBox="0 0 165 164" fill="none" xmlns="http://www.w3.org/2000/svg">
<path fillRule="evenodd" clipRule="evenodd" d="M15.5 1.4335C8.3985 3.7255 2.845 9.9085 1.495 17.0255C0.835503 20.504 0.821003 143.92 1.48 147.394C2.1745 151.057 3.8085 154.209 6.589 157.252C9.4295 160.36 12.161 162.083 16.0345 163.209C18.5315 163.935 25.276 164.001 84.0545 163.882L149.302 163.75L153.112 161.867C157.51 159.693 160.687 156.506 162.853 152.096L164.25 149.25V82.25V15.25L162.853 12.404C160.687 7.9935 157.51 4.8065 153.112 2.633L149.302 0.749997L83.776 0.647997C22.224 0.552497 18.083 0.599997 15.5 1.4335ZM102.75 22.6365C110.525 24.7335 115.538 27.438 120.017 31.953C126.376 38.3635 129.017 45.11 129.055 55.041C129.1 67.09 125.686 75.492 117.725 82.927C110.58 89.5995 100.873 93.426 90 93.8555C83.6665 94.106 81.7635 93.79 70.875 90.6825C70.054 90.448 70.0005 91.4735 70.01 107.341C70.0205 125.078 70.4255 130.43 71.915 132.5C73.2845 134.403 76.0915 135.545 81.4155 136.367C84.0745 136.777 86.756 137.204 87.375 137.316C88.38 137.497 88.5 137.811 88.5 140.259V143H62.5H36.5V140.283C36.5 137.231 36.425 137.289 41.058 136.763C45.419 136.268 49.004 135.168 50.3765 133.904C53.3715 131.144 53.2365 133.319 53.398 85.253C53.55 40.0725 53.362 34.3505 51.6275 31.3145C50.321 29.0285 47.049 27.623 41.375 26.91L36.5 26.2975V23.621V20.944L67.125 21.116L97.75 21.288L102.75 22.6365ZM75.3295 28.1855C72.361 29.023 71.067 30.253 70.4765 32.7995C69.8005 35.7135 69.864 83.357 70.5445 83.7775C71.895 84.612 76.6505 85.5435 81.01 85.8275C93.595 86.6465 103.725 81.448 108.295 71.825C112.421 63.1355 112.517 49.861 108.511 41.704C105.504 35.5795 100.795 31.6105 93.664 29.191C88.8745 27.5655 79.3745 27.0445 75.3295 28.1855Z" fill="white"/>
</svg>
